<?xml version="1.0" encoding="UTF-8"?>
<!DOCTYPE svg PUBLIC "-//W3C//DTD SVG 1.1//EN" "http://www.w3.org/Graphics/SVG/1.1/DTD/svg11.dtd">
<svg xmlns="http://www.w3.org/2000/svg" version="1.1" width="446px" height="354px" style="shape-rendering:geometricPrecision; text-rendering:geometricPrecision; image-rendering:optimizeQuality; fill-rule:evenodd; clip-rule:evenodd" xmlns:xlink="http://www.w3.org/1999/xlink">
<g><path style="opacity:0.998" fill="#1e5b4b" d="M -0.5,5.5 C 2.84547,6.25748 5.67881,7.92414 8,10.5C 8.41395,10.0426 8.91395,9.70931 9.5,9.5C 30.2119,20.8539 50.8786,32.1872 71.5,43.5C 74.5567,46.5436 78.2234,48.8769 82.5,50.5C 83.1174,50.3893 83.6174,50.056 84,49.5C 88.5738,52.379 92.7404,55.0456 96.5,57.5C 97.7732,57.2545 98.9399,57.2545 100,57.5C 101.57,58.614 102.903,59.9474 104,61.5C 104.333,61.1667 104.667,60.8333 105,60.5C 110.182,63.5139 115.348,66.6806 120.5,70C 124.167,71.5 127.833,73 131.5,74.5C 133.601,77.2695 136.268,79.2695 139.5,80.5C 140.086,80.2907 140.586,79.9574 141,79.5C 143.973,81.1468 146.64,83.1468 149,85.5C 147.589,91.8003 144.422,97.3003 139.5,102C 139.5,103 139.5,104 139.5,105C 137.699,105.317 137.366,105.984 138.5,107C 137.539,110.018 136.206,112.851 134.5,115.5C 135.687,117.21 135.354,118.71 133.5,120C 134.148,121.44 134.481,122.94 134.5,124.5C 133.213,125.871 132.547,127.705 132.5,130C 132.547,132.295 133.213,134.129 134.5,135.5C 132.921,138.1 133.255,140.433 135.5,142.5C 134.125,144.163 134.458,145.497 136.5,146.5C 135.282,147.803 135.615,148.803 137.5,149.5C 136.098,150.842 136.431,151.676 138.5,152C 140.263,158.805 143.929,164.805 149.5,170C 153.617,172.45 157.45,175.284 161,178.5C 161.333,187.833 161.667,197.167 162,206.5C 162.579,208.649 163.079,210.815 163.5,213C 162.382,215.059 161.715,217.226 161.5,219.5C 159.007,219.671 157.174,218.671 156,216.5C 154.984,217.634 154.317,217.301 154,215.5C 152.984,216.634 152.317,216.301 152,214.5C 151.667,214.833 151.333,215.167 151,215.5C 150.28,213.944 149.113,212.944 147.5,212.5C 146.035,211.263 144.368,210.263 142.5,209.5C 134.419,206.293 126.753,202.293 119.5,197.5C 117.206,195.347 114.54,193.68 111.5,192.5C 110.175,193.953 109.342,193.619 109,191.5C 108.667,191.833 108.333,192.167 108,192.5C 106.856,190.083 105.19,189.416 103,190.5C 93.169,184.25 83.169,178.25 73,172.5C 71.984,173.634 71.3173,173.301 71,171.5C 67.1302,171.677 63.9635,170.01 61.5,166.5C 53.3794,162.869 45.3794,159.036 37.5,155C 36.7607,153.235 36.7607,151.235 37.5,149C 35.8645,147.566 34.8645,145.733 34.5,143.5C 33.2965,137.193 31.6299,130.693 29.5,124C 30,122.5 30.5,121 31,119.5C 32.3953,120.43 33.8953,120.43 35.5,119.5C 38.8113,120.064 41.3113,121.731 43,124.5C 50.0746,126.718 56.7412,130.384 63,135.5C 63.3333,135.167 63.6667,134.833 64,134.5C 69.5039,136.673 74.5039,139.673 79,143.5C 79.3333,143.167 79.6667,142.833 80,142.5C 84.1098,146.114 88.6098,149.114 93.5,151.5C 97.1362,154.323 101.136,156.656 105.5,158.5C 106.825,157.047 107.658,157.381 108,159.5C 108.783,157.567 108.283,156.067 106.5,155C 107.815,153.605 107.481,152.605 105.5,152C 106.662,150.173 106.328,148.506 104.5,147C 105.251,145.025 105.251,143.358 104.5,142C 97.1598,139.447 90.9931,135.947 86,131.5C 85.6667,131.833 85.3333,132.167 85,132.5C 81.2702,131.477 78.2702,129.477 76,126.5C 75,126.5 74,126.5 73,126.5C 61.4757,119.393 50.6423,113.059 40.5,107.5C 37.6963,105.595 34.6963,103.929 31.5,102.5C 27.5594,101.529 24.226,99.529 21.5,96.5C 22.7178,95.1973 22.3845,94.1973 20.5,93.5C 21.8754,91.8366 21.542,90.5032 19.5,89.5C 19.337,87.3778 19.337,85.2112 19.5,83C 17.179,80.8802 16.5123,78.3802 17.5,75.5C 14.9164,72.5065 14.2498,69.1731 15.5,65.5C 16.8544,63.8164 18.5211,63.3164 20.5,64C 28.3261,68.9127 36.6594,72.746 45.5,75.5C 45.3505,76.552 45.5172,77.552 46,78.5C 46.3333,78.1667 46.6667,77.8333 47,77.5C 48.4896,79.558 50.4896,80.8913 53,81.5C 53.3333,81.1667 53.6667,80.8333 54,80.5C 58.157,84.248 62.8236,87.248 68,89.5C 69.7134,85.9054 71.5467,82.4054 73.5,79C 67.7836,76.1416 62.4503,72.6416 57.5,68.5C 52.9738,68.3175 49.1404,66.3175 46,62.5C 44.836,62.1654 43.5026,62.1654 42,62.5C 39.4005,60.1215 36.5672,58.1215 33.5,56.5C 33.6309,55.6236 33.2975,54.9569 32.5,54.5C 29.2544,52.9608 26.0877,51.2941 23,49.5C 22.6174,50.056 22.1174,50.3893 21.5,50.5C 18.7173,48.9335 16.0507,47.1001 13.5,45C 11.5144,45.7941 9.68109,45.2941 8,43.5C 6.55507,37.3188 4.05507,31.6521 0.5,26.5C 2.09162,24.7751 1.75828,23.7751 -0.5,23.5C -0.5,17.5 -0.5,11.5 -0.5,5.5 Z M 7.5,18.5 C 36.9378,33.7199 66.2711,49.2199 95.5,65C 90.4948,67.5026 85.4948,70.0026 80.5,72.5C 58.8701,61.0173 37.2034,49.5173 15.5,38C 11.7626,31.958 9.0959,25.458 7.5,18.5 Z M 97.5,72.5 C 120.421,73.0172 130.921,84.6839 129,107.5C 125.088,120.557 116.254,127.557 102.5,128.5C 81.9095,125.748 72.7428,114.082 75,93.5C 78.8814,82.4466 86.3814,75.4466 97.5,72.5 Z M 25.5,75.5 C 38.7797,82.4745 52.113,89.4745 65.5,96.5C 66.5136,102.253 67.847,107.919 69.5,113.5C 69.1667,113.833 68.8333,114.167 68.5,114.5C 55.9927,107.412 43.3261,100.579 30.5,94C 27.9799,88.0879 26.3132,81.9213 25.5,75.5 Z M 124.5,127.5 C 125.308,151.115 135.141,170.115 154,184.5C 155.704,190.776 155.871,197.11 154.5,203.5C 129.121,187.409 114.954,164.409 112,134.5C 116.602,132.787 120.768,130.453 124.5,127.5 Z M 40.5,131.5 C 65.2985,144.4 89.9652,157.566 114.5,171C 119.191,179.379 124.858,187.046 131.5,194C 129.711,194.52 128.044,194.187 126.5,193C 100.085,178.264 73.4184,163.931 46.5,150C 43.3525,144.257 41.3525,138.09 40.5,131.5 Z"/></g>
<g><path style="opacity:0.998" fill="#1c5a4b" d="M 443.5,24.5 C 441.554,25.0347 440.554,26.368 440.5,28.5C 440.567,29.9587 440.234,31.2921 439.5,32.5C 438.25,32.5774 437.417,33.244 437,34.5C 436.178,37.1168 435.678,39.7835 435.5,42.5C 435.106,44.7099 433.773,46.0432 431.5,46.5C 431.44,45.9569 431.107,45.6236 430.5,45.5C 427.501,46.4757 425.168,48.1423 423.5,50.5C 422.22,51.9313 420.553,52.5979 418.5,52.5C 418.565,52.0618 418.399,51.7284 418,51.5C 415.579,52.9606 413.079,54.2939 410.5,55.5C 409.702,55.9569 409.369,56.6236 409.5,57.5C 406.328,59.2519 403.328,61.2519 400.5,63.5C 399.377,62.2426 398.711,62.5759 398.5,64.5C 394.5,66.5 390.5,68.5 386.5,70.5C 386.44,69.9569 386.107,69.6236 385.5,69.5C 383.787,69.8793 382.787,70.8793 382.5,72.5C 380.574,74.2927 378.241,75.2927 375.5,75.5C 373.254,76.4552 370.921,77.1218 368.5,77.5C 368.925,82.35 370.925,86.35 374.5,89.5C 374.369,90.2389 374.536,90.9056 375,91.5C 376.417,90.9221 377.25,89.9221 377.5,88.5C 381.828,86.6713 385.828,84.338 389.5,81.5C 389.56,82.0431 389.893,82.3764 390.5,82.5C 393.499,81.5243 395.832,79.8577 397.5,77.5C 400.768,75.866 404.101,74.1993 407.5,72.5C 407.56,73.0431 407.893,73.3764 408.5,73.5C 411.499,72.5243 413.832,70.8577 415.5,68.5C 418.493,65.4477 422.159,64.281 426.5,65C 428.25,66.7542 428.917,68.9208 428.5,71.5C 426.576,71.7107 426.243,72.3774 427.5,73.5C 427.5,74.1667 427.5,74.8333 427.5,75.5C 425.576,75.7107 425.243,76.3774 426.5,77.5C 426.5,77.8333 426.5,78.1667 426.5,78.5C 424.448,79.0527 424.115,80.0527 425.5,81.5C 425.5,81.8333 425.5,82.1667 425.5,82.5C 423.204,82.8041 422.871,83.8041 424.5,85.5C 424.5,85.8333 424.5,86.1667 424.5,86.5C 422.448,87.0527 422.115,88.0527 423.5,89.5C 423.5,89.8333 423.5,90.1667 423.5,90.5C 421.448,91.0527 421.115,92.0527 422.5,93.5C 422.5,93.8333 422.5,94.1667 422.5,94.5C 420.576,94.7107 420.243,95.3774 421.5,96.5C 421.715,98.1788 421.048,99.1788 419.5,99.5C 416.594,100.108 414.26,101.441 412.5,103.5C 408.849,104.659 405.515,106.326 402.5,108.5C 400.81,108.856 399.81,109.856 399.5,111.5C 396.232,113.134 392.899,114.801 389.5,116.5C 389.44,115.957 389.107,115.624 388.5,115.5C 386.787,115.879 385.787,116.879 385.5,118.5C 381.052,121.209 376.386,123.542 371.5,125.5C 367.43,126.524 364.096,128.524 361.5,131.5C 361.5,132.167 361.167,132.5 360.5,132.5C 358.517,132.157 357.183,132.824 356.5,134.5C 353.833,135.833 351.167,137.167 348.5,138.5C 345.607,138.031 343.607,139.031 342.5,141.5C 342.158,142.338 341.492,142.672 340.5,142.5C 337.691,142.958 337.024,144.291 338.5,146.5C 338.5,147.167 338.5,147.833 338.5,148.5C 336.699,149.719 335.699,151.552 335.5,154C 335.57,154.765 335.903,155.265 336.5,155.5C 336.5,155.833 336.5,156.167 336.5,156.5C 334.656,157.204 334.156,158.537 335,160.5C 335.342,158.381 336.175,158.047 337.5,159.5C 341.903,157.36 346.237,155.027 350.5,152.5C 351.298,152.043 351.631,151.376 351.5,150.5C 355.136,147.677 359.136,145.344 363.5,143.5C 363.56,144.043 363.893,144.376 364.5,144.5C 367.499,143.524 369.832,141.858 371.5,139.5C 372.514,138.326 373.847,137.66 375.5,137.5C 376.117,137.611 376.617,137.944 377,138.5C 381.755,135.872 386.588,133.372 391.5,131C 390.906,130.536 390.239,130.369 389.5,130.5C 390.965,129.263 392.632,128.263 394.5,127.5C 396.632,127.446 397.965,126.446 398.5,124.5C 401.167,123.167 403.833,121.833 406.5,120.5C 408.827,121.366 411.161,122.366 413.5,123.5C 413.675,125.621 413.341,127.621 412.5,129.5C 410.656,131.279 409.99,133.612 410.5,136.5C 410.5,136.833 410.5,137.167 410.5,137.5C 408.576,137.711 408.243,138.377 409.5,139.5C 409.5,140.167 409.5,140.833 409.5,141.5C 407.576,141.711 407.243,142.377 408.5,143.5C 408.167,145.5 407.833,147.5 407.5,149.5C 405.302,149.409 404.969,150.075 406.5,151.5C 406.5,152.167 406.5,152.833 406.5,153.5C 404.303,154.845 401.97,156.011 399.5,157C 398.748,157.671 398.414,158.504 398.5,159.5C 398.167,159.5 397.833,159.5 397.5,159.5C 397.44,158.957 397.107,158.624 396.5,158.5C 392.331,159.894 388.998,162.228 386.5,165.5C 385.486,166.674 384.153,167.34 382.5,167.5C 380.368,167.554 379.035,168.554 378.5,170.5C 375.872,171.814 373.205,173.147 370.5,174.5C 370.44,173.957 370.107,173.624 369.5,173.5C 366.501,174.476 364.168,176.142 362.5,178.5C 360.147,180.343 357.48,181.677 354.5,182.5C 354.44,181.957 354.107,181.624 353.5,181.5C 350.846,182.968 348.513,184.635 346.5,186.5C 343.991,187.921 341.657,189.588 339.5,191.5C 339.44,190.957 339.107,190.624 338.5,190.5C 336.787,190.879 335.787,191.879 335.5,193.5C 332.167,195.167 328.833,196.833 325.5,198.5C 322.607,198.031 320.607,199.031 319.5,201.5C 317.147,203.343 314.48,204.677 311.5,205.5C 308.784,205.386 306.784,206.386 305.5,208.5C 304.486,209.674 303.153,210.34 301.5,210.5C 298.738,211.38 296.071,212.546 293.5,214C 292.748,214.671 292.414,215.504 292.5,216.5C 290.95,217.441 289.284,218.107 287.5,218.5C 287.44,217.957 287.107,217.624 286.5,217.5C 284.787,217.879 283.787,218.879 283.5,220.5C 279.345,216.969 278.512,212.636 281,207.5C 281.5,198.173 281.666,188.839 281.5,179.5C 282.833,179.5 283.5,178.833 283.5,177.5C 287.522,174.471 291.522,171.471 295.5,168.5C 296.167,168.167 296.833,167.833 297.5,167.5C 299.975,166.313 300.975,164.313 300.5,161.5C 302.176,160.817 302.843,159.483 302.5,157.5C 302.833,156.833 303.167,156.167 303.5,155.5C 304.376,155.631 305.043,155.298 305.5,154.5C 306.653,153.313 306.653,152.313 305.5,151.5C 305.5,151.167 305.5,150.833 305.5,150.5C 307.424,150.289 307.757,149.623 306.5,148.5C 306.5,147.833 306.5,147.167 306.5,146.5C 308.796,146.196 309.129,145.196 307.5,143.5C 307.5,143.167 307.5,142.833 307.5,142.5C 308.586,142.38 309.253,141.713 309.5,140.5C 309.457,139.584 309.124,138.917 308.5,138.5C 308.5,137.833 308.5,137.167 308.5,136.5C 309.787,135.129 310.453,133.295 310.5,131C 310.453,128.705 309.787,126.871 308.5,125.5C 308.5,124.5 308.5,123.5 308.5,122.5C 309.124,122.083 309.457,121.416 309.5,120.5C 309.253,119.287 308.586,118.62 307.5,118.5C 307.5,118.167 307.5,117.833 307.5,117.5C 308.885,116.053 308.552,115.053 306.5,114.5C 306.5,114.167 306.5,113.833 306.5,113.5C 307.757,112.377 307.424,111.711 305.5,111.5C 305.5,111.167 305.5,110.833 305.5,110.5C 306.203,108.966 306.036,107.299 305,105.5C 304.329,104.748 303.496,104.414 302.5,104.5C 302.5,104.167 302.5,103.833 302.5,103.5C 302.57,99.6341 300.903,96.3008 297.5,93.5C 296.5,92.8333 295.5,92.1667 294.5,91.5C 293.387,90.0536 293.22,88.3869 294,86.5C 296.436,83.8915 299.269,81.8915 302.5,80.5C 302.56,81.0431 302.893,81.3764 303.5,81.5C 306.499,80.5243 308.832,78.8577 310.5,76.5C 313.759,74.8472 317.093,73.1805 320.5,71.5C 320.56,72.0431 320.893,72.3764 321.5,72.5C 323.213,72.1207 324.213,71.1207 324.5,69.5C 328.224,66.9711 332.224,64.9711 336.5,63.5C 339.485,62.6743 342.151,61.341 344.5,59.5C 348.12,58.2068 351.12,56.2068 353.5,53.5C 353.842,52.6618 354.508,52.3284 355.5,52.5C 356.117,52.6107 356.617,52.944 357,53.5C 360.755,51.3725 364.588,49.3725 368.5,47.5C 369.298,47.0431 369.631,46.3764 369.5,45.5C 371.848,45.4077 373.514,44.4077 374.5,42.5C 376.632,42.4456 377.965,41.4456 378.5,39.5C 379.391,38.8902 380.391,38.5569 381.5,38.5C 381.56,39.0431 381.893,39.3764 382.5,39.5C 387.636,36.9501 392.303,33.9501 396.5,30.5C 397.93,29.4625 399.597,28.7959 401.5,28.5C 404.889,27.3689 408.222,26.0355 411.5,24.5C 412.298,24.0431 412.631,23.3764 412.5,22.5C 414.349,21.407 416.016,20.0737 417.5,18.5C 418.623,19.7574 419.289,19.4241 419.5,17.5C 419.833,17.5 420.167,17.5 420.5,17.5C 420.56,18.0431 420.893,18.3764 421.5,18.5C 423.833,17.3333 426.167,16.1667 428.5,15C 429.252,14.3292 429.586,13.4959 429.5,12.5C 430.833,11.8333 432.167,11.1667 433.5,10.5C 433.56,11.0431 433.893,11.3764 434.5,11.5C 436.213,11.1207 437.213,10.1207 437.5,8.5C 439.102,6.92606 441.102,6.25939 443.5,6.5C 443.5,12.5 443.5,18.5 443.5,24.5 Z M 433.5,19.5 C 434.497,19.4701 435.164,19.9701 435.5,21C 433.529,26.5792 431.363,32.0792 429,37.5C 407.58,49.4603 386.08,61.2936 364.5,73C 363.167,73.6667 361.833,73.6667 360.5,73C 356.294,70.3977 351.961,68.0643 347.5,66C 376.388,50.7258 405.055,35.2258 433.5,19.5 Z M 335.5,73.5 C 351.505,72.5812 362.338,79.5812 368,94.5C 370.257,115.082 361.091,126.748 340.5,129.5C 317.009,125.205 308.843,111.538 316,88.5C 320.67,80.9817 327.17,75.9817 335.5,73.5 Z M 415.5,76.5 C 416.586,76.62 417.253,77.2867 417.5,78.5C 416.368,84.2012 414.702,89.7012 412.5,95C 399.674,101.579 387.007,108.412 374.5,115.5C 374.167,115.167 373.833,114.833 373.5,114.5C 375.153,108.919 376.486,103.253 377.5,97.5C 390.55,90.9796 403.217,83.9796 415.5,76.5 Z M 317.5,128.5 C 321.769,131.218 326.269,133.552 331,135.5C 328.046,165.409 313.879,188.409 288.5,204.5C 287.129,198.11 287.296,191.776 289,185.5C 308.077,171.346 317.577,152.346 317.5,128.5 Z M 401.5,132.5 C 402.097,132.735 402.43,133.235 402.5,134C 401.41,140.051 399.41,145.718 396.5,151C 369.582,164.931 342.915,179.264 316.5,194C 314.956,195.187 313.289,195.52 311.5,195C 318.142,188.046 323.809,180.379 328.5,172C 352.895,158.805 377.228,145.638 401.5,132.5 Z"/></g>
<g><path style="opacity:1" fill="#9fada3" d="M 437.5,8.5 C 437.213,10.1207 436.213,11.1207 434.5,11.5C 433.893,11.3764 433.56,11.0431 433.5,10.5C 434.514,9.32627 435.847,8.6596 437.5,8.5 Z"/></g>
<g><path style="opacity:1" fill="#6f8a77" d="M 429.5,12.5 C 429.586,13.4959 429.252,14.3292 428.5,15C 426.167,16.1667 423.833,17.3333 421.5,18.5C 420.893,18.3764 420.56,18.0431 420.5,17.5C 423.304,15.5954 426.304,13.9287 429.5,12.5 Z"/></g>
<g><path style="opacity:1" fill="#cfd9d2" d="M 419.5,17.5 C 419.289,19.4241 418.623,19.7574 417.5,18.5C 417.842,17.6618 418.508,17.3284 419.5,17.5 Z"/></g>
<g><path style="opacity:1" fill="#67826e" d="M 412.5,22.5 C 412.631,23.3764 412.298,24.0431 411.5,24.5C 408.222,26.0355 404.889,27.3689 401.5,28.5C 404.678,25.7417 408.345,23.7417 412.5,22.5 Z"/></g>
<g><path style="opacity:0.196" fill="#789681" d="M 443.5,24.5 C 443.446,26.632 442.446,27.9653 440.5,28.5C 440.554,26.368 441.554,25.0347 443.5,24.5 Z"/></g>
<g><path style="opacity:0.612" fill="#8da293" d="M 396.5,30.5 C 392.303,33.9501 387.636,36.9501 382.5,39.5C 381.893,39.3764 381.56,39.0431 381.5,38.5C 386.016,35.0734 391.016,32.4068 396.5,30.5 Z"/></g>
<g><path style="opacity:0.953" fill="#5a7a62" d="M 439.5,32.5 C 438.342,35.9889 437.009,39.3223 435.5,42.5C 435.678,39.7835 436.178,37.1168 437,34.5C 437.417,33.244 438.25,32.5774 439.5,32.5 Z"/></g>
<g><path style="opacity:0.48" fill="#c2d0c6" d="M 378.5,39.5 C 377.965,41.4456 376.632,42.4456 374.5,42.5C 375.436,41.0256 376.77,40.0256 378.5,39.5 Z"/></g>
<g><path style="opacity:1" fill="#8ea394" d="M 374.5,42.5 C 373.514,44.4077 371.848,45.4077 369.5,45.5C 370.659,43.7497 372.326,42.7497 374.5,42.5 Z"/></g>
<g><path style="opacity:0.847" fill="#647e6b" d="M 71.5,43.5 C 74.7802,45.1401 78.1136,46.8068 81.5,48.5C 82.2975,48.9569 82.6309,49.6236 82.5,50.5C 78.2234,48.8769 74.5567,46.5436 71.5,43.5 Z"/></g>
<g><path style="opacity:0.584" fill="#9dafa2" d="M 431.5,46.5 C 429.151,48.341 426.485,49.6743 423.5,50.5C 425.168,48.1423 427.501,46.4757 430.5,45.5C 431.107,45.6236 431.44,45.9569 431.5,46.5 Z"/></g>
<g><path style="opacity:0.882" fill="#7d9383" d="M 369.5,45.5 C 369.631,46.3764 369.298,47.0431 368.5,47.5C 364.588,49.3725 360.755,51.3725 357,53.5C 356.617,52.944 356.117,52.6107 355.5,52.5C 359.849,49.6589 364.516,47.3255 369.5,45.5 Z"/></g>
<g><path style="opacity:0.973" fill="#617d68" d="M 33.5,56.5 C 29.4347,54.4673 25.4347,52.4673 21.5,50.5C 22.1174,50.3893 22.6174,50.056 23,49.5C 26.0877,51.2941 29.2544,52.9608 32.5,54.5C 33.2975,54.9569 33.6309,55.6236 33.5,56.5 Z"/></g>
<g><path style="opacity:0.655" fill="#7d9383" d="M 418.5,52.5 C 415.992,54.9236 412.992,56.5903 409.5,57.5C 409.369,56.6236 409.702,55.9569 410.5,55.5C 413.079,54.2939 415.579,52.9606 418,51.5C 418.399,51.7284 418.565,52.0618 418.5,52.5 Z"/></g>
<g><path style="opacity:0.537" fill="#a1b1a6" d="M 353.5,53.5 C 351.12,56.2068 348.12,58.2068 344.5,59.5C 343.833,59.5 343.5,59.1667 343.5,58.5C 346.515,56.3256 349.849,54.6589 353.5,53.5 Z"/></g>
<g><path style="opacity:0.492" fill="#728b79" d="M 343.5,58.5 C 343.5,59.1667 343.833,59.5 344.5,59.5C 342.151,61.341 339.485,62.6743 336.5,63.5C 338.198,61.1325 340.531,59.4658 343.5,58.5 Z"/></g>
<g><path style="opacity:0.078" fill="#d0dad2" d="M 400.5,63.5 C 400.158,64.3382 399.492,64.6716 398.5,64.5C 398.711,62.5759 399.377,62.2426 400.5,63.5 Z"/></g>
<g><path style="opacity:0.62" fill="#a2b1a6" d="M 386.5,70.5 C 385.486,71.6737 384.153,72.3404 382.5,72.5C 382.787,70.8793 383.787,69.8793 385.5,69.5C 386.107,69.6236 386.44,69.9569 386.5,70.5 Z"/></g>
<g><path style="opacity:1" fill="#7b8f81" d="M 324.5,69.5 C 324.213,71.1207 323.213,72.1207 321.5,72.5C 320.893,72.3764 320.56,72.0431 320.5,71.5C 321.514,70.3263 322.847,69.6596 324.5,69.5 Z"/></g>
<g><path style="opacity:1" fill="#798f7e" d="M 415.5,68.5 C 413.832,70.8577 411.499,72.5243 408.5,73.5C 407.893,73.3764 407.56,73.0431 407.5,72.5C 409.849,70.659 412.515,69.3257 415.5,68.5 Z"/></g>
<g><path style="opacity:0.667" fill="#9bada0" d="M 428.5,71.5 C 428.672,72.4916 428.338,73.1583 427.5,73.5C 426.243,72.3774 426.576,71.7107 428.5,71.5 Z"/></g>
<g><path style="opacity:0.329" fill="#afbeb4" d="M 427.5,75.5 C 427.672,76.4916 427.338,77.1583 426.5,77.5C 425.243,76.3774 425.576,75.7107 427.5,75.5 Z"/></g>
<g><path style="opacity:0.91" fill="#768f7d" d="M 375.5,75.5 C 374.086,77.0542 372.419,78.3875 370.5,79.5C 372.036,82.7775 373.369,86.1109 374.5,89.5C 370.925,86.35 368.925,82.35 368.5,77.5C 370.921,77.1218 373.254,76.4552 375.5,75.5 Z"/></g>
<g><path style="opacity:0.831" fill="#a7b6ab" d="M 310.5,76.5 C 308.832,78.8577 306.499,80.5243 303.5,81.5C 302.893,81.3764 302.56,81.0431 302.5,80.5C 304.849,78.659 307.515,77.3257 310.5,76.5 Z"/></g>
<g><path style="opacity:0.357" fill="#97aa9c" d="M 426.5,78.5 C 426.737,79.791 426.404,80.791 425.5,81.5C 424.115,80.0527 424.448,79.0527 426.5,78.5 Z"/></g>
<g><path style="opacity:0.573" fill="#a5b5aa" d="M 397.5,77.5 C 395.832,79.8577 393.499,81.5243 390.5,82.5C 389.893,82.3764 389.56,82.0431 389.5,81.5C 391.849,79.659 394.515,78.3257 397.5,77.5 Z"/></g>
<g><path style="opacity:0.235" fill="#9fb4a4" d="M 425.5,82.5 C 425.737,83.791 425.404,84.791 424.5,85.5C 422.871,83.8041 423.204,82.8041 425.5,82.5 Z"/></g>
<g><path style="opacity:0.188" fill="#a8baae" d="M 424.5,86.5 C 424.737,87.791 424.404,88.791 423.5,89.5C 422.115,88.0527 422.448,87.0527 424.5,86.5 Z"/></g>
<g><path style="opacity:1" fill="#91a396" d="M 377.5,88.5 C 377.25,89.9221 376.417,90.9221 375,91.5C 374.536,90.9056 374.369,90.2389 374.5,89.5C 375.391,88.8902 376.391,88.5569 377.5,88.5 Z"/></g>
<g><path style="opacity:0.141" fill="#b6c6bb" d="M 423.5,90.5 C 423.737,91.791 423.404,92.791 422.5,93.5C 421.115,92.0527 421.448,91.0527 423.5,90.5 Z"/></g>
<g><path style="opacity:0.4" fill="#b8c6bc" d="M 294.5,91.5 C 295.5,92.1667 296.5,92.8333 297.5,93.5C 297.5,94.1667 297.5,94.8333 297.5,95.5C 295.738,94.7377 294.738,93.4044 294.5,91.5 Z"/></g>
<g><path style="opacity:0.055" fill="#a3b8a9" d="M 422.5,94.5 C 422.672,95.4916 422.338,96.1583 421.5,96.5C 420.243,95.3774 420.576,94.7107 422.5,94.5 Z"/></g>
<g><path style="opacity:0.886" fill="#64816c" d="M 297.5,93.5 C 300.903,96.3008 302.57,99.6341 302.5,103.5C 300.847,100.869 299.181,98.2028 297.5,95.5C 297.5,94.8333 297.5,94.1667 297.5,93.5 Z"/></g>
<g><path style="opacity:0.961" fill="#6f8a76" d="M 419.5,99.5 C 417.664,101.588 415.331,102.921 412.5,103.5C 414.26,101.441 416.594,100.108 419.5,99.5 Z"/></g>
<g><path style="opacity:1" fill="#5e8168" d="M 31.5,102.5 C 34.6963,103.929 37.6963,105.595 40.5,107.5C 39.8826,107.611 39.3826,107.944 39,108.5C 36.913,107.206 34.7463,106.039 32.5,105C 31.7476,104.329 31.4142,103.496 31.5,102.5 Z"/></g>
<g><path style="opacity:0.145" fill="#62836c" d="M 412.5,103.5 C 410.054,106.231 407.054,108.231 403.5,109.5C 403.5,108.833 403.167,108.5 402.5,108.5C 405.515,106.326 408.849,104.659 412.5,103.5 Z"/></g>
<g><path style="opacity:0.4" fill="#90a696" d="M 302.5,104.5 C 303.496,104.414 304.329,104.748 305,105.5C 306.036,107.299 306.203,108.966 305.5,110.5C 303.992,108.819 302.992,106.819 302.5,104.5 Z"/></g>
<g><path style="opacity:0.286" fill="#b0c0b5" d="M 402.5,108.5 C 403.167,108.5 403.5,108.833 403.5,109.5C 402.486,110.674 401.153,111.34 399.5,111.5C 399.81,109.856 400.81,108.856 402.5,108.5 Z"/></g>
<g><path style="opacity:0.569" fill="#8fa294" d="M 305.5,111.5 C 307.424,111.711 307.757,112.377 306.5,113.5C 305.662,113.158 305.328,112.492 305.5,111.5 Z"/></g>
<g><path style="opacity:0.997" fill="#185c4e" d="M 210.5,113.5 C 235.975,113.676 261.308,115.509 286.5,119C 271.212,124.812 256.879,132.478 243.5,142C 232.893,151.069 225.726,162.236 222,175.5C 215.321,154.813 202.154,139.646 182.5,130C 174.361,126.067 166.027,122.734 157.5,120C 159.087,119.138 160.754,118.471 162.5,118C 178.652,116.495 194.652,114.995 210.5,113.5 Z"/></g>
<g><path style="opacity:0.741" fill="#9aaa9f" d="M 389.5,116.5 C 388.486,117.674 387.153,118.34 385.5,118.5C 385.787,116.879 386.787,115.879 388.5,115.5C 389.107,115.624 389.44,115.957 389.5,116.5 Z"/></g>
<g><path style="opacity:0.678" fill="#a8b8ad" d="M 306.5,114.5 C 308.552,115.053 308.885,116.053 307.5,117.5C 306.596,116.791 306.263,115.791 306.5,114.5 Z"/></g>
<g><path style="opacity:0.408" fill="#a4b5a9" d="M 413.5,123.5 C 411.161,122.366 408.827,121.366 406.5,120.5C 409.978,118.67 412.311,119.67 413.5,123.5 Z"/></g>
<g><path style="opacity:0.843" fill="#b1c0b5" d="M 307.5,118.5 C 308.586,118.62 309.253,119.287 309.5,120.5C 309.457,121.416 309.124,122.083 308.5,122.5C 307.566,121.432 307.232,120.099 307.5,118.5 Z"/></g>
<g><path style="opacity:0.529" fill="#c4d0c8" d="M 398.5,124.5 C 397.965,126.446 396.632,127.446 394.5,127.5C 395.262,125.738 396.596,124.738 398.5,124.5 Z"/></g>
<g><path style="opacity:1" fill="#779580" d="M 134.5,124.5 C 133.325,128.15 133.325,131.817 134.5,135.5C 133.213,134.129 132.547,132.295 132.5,130C 132.547,127.705 133.213,125.871 134.5,124.5 Z"/></g>
<g><path style="opacity:1" fill="#7a9883" d="M 308.5,125.5 C 309.787,126.871 310.453,128.705 310.5,131C 310.453,133.295 309.787,135.129 308.5,136.5C 308.5,132.833 308.5,129.167 308.5,125.5 Z"/></g>
<g><path style="opacity:0.176" fill="#74907c" d="M 371.5,125.5 C 368.904,128.476 365.57,130.476 361.5,131.5C 364.096,128.524 367.43,126.524 371.5,125.5 Z"/></g>
<g><path style="opacity:0.58" fill="#8ea394" d="M 412.5,129.5 C 412.279,132.067 411.612,134.401 410.5,136.5C 409.99,133.612 410.656,131.279 412.5,129.5 Z"/></g>
<g><path style="opacity:0.365" fill="#bdc7c0" d="M 360.5,132.5 C 359.486,133.674 358.153,134.34 356.5,134.5C 357.183,132.824 358.517,132.157 360.5,132.5 Z"/></g>
<g><path style="opacity:0.886" fill="#66816d" d="M 389.5,130.5 C 390.239,130.369 390.906,130.536 391.5,131C 386.588,133.372 381.755,135.872 377,138.5C 376.617,137.944 376.117,137.611 375.5,137.5C 379.818,134.674 384.484,132.341 389.5,130.5 Z"/></g>
<g><path style="opacity:0.999" fill="#236154" d="M 160.5,135.5 C 167.597,135.774 174.263,137.607 180.5,141C 170.552,145.179 167.385,152.346 171,162.5C 176.378,169.542 183.211,171.375 191.5,168C 195.949,164.603 198.449,160.103 199,154.5C 204.643,159.769 207.476,166.102 207.5,173.5C 188.604,181.222 173.104,176.889 161,160.5C 156.597,152.157 156.43,143.824 160.5,135.5 Z"/></g>
<g><path style="opacity:0.998" fill="#236154" d="M 277.5,135.5 C 279.792,135.244 281.959,135.577 284,136.5C 289.387,153.576 283.887,166.076 267.5,174C 257.052,178.79 246.719,178.624 236.5,173.5C 236.526,166.099 239.359,159.765 245,154.5C 248.075,169.122 256.242,173.122 269.5,166.5C 277.694,155.607 275.694,147.107 263.5,141C 268.046,138.545 272.712,136.712 277.5,135.5 Z"/></g>
<g><path style="opacity:0.812" fill="#9bab9f" d="M 348.5,138.5 C 346.819,140.008 344.819,141.008 342.5,141.5C 343.607,139.031 345.607,138.031 348.5,138.5 Z"/></g>
<g><path style="opacity:0.796" fill="#9bab9f" d="M 410.5,137.5 C 410.672,138.492 410.338,139.158 409.5,139.5C 408.243,138.377 408.576,137.711 410.5,137.5 Z"/></g>
<g><path style="opacity:0.969" fill="#b7c4bb" d="M 308.5,138.5 C 309.124,138.917 309.457,139.584 309.5,140.5C 309.253,141.713 308.586,142.38 307.5,142.5C 307.232,140.901 307.566,139.568 308.5,138.5 Z"/></g>
<g><path style="opacity:0.584" fill="#92a598" d="M 371.5,139.5 C 369.832,141.858 367.499,143.524 364.5,144.5C 363.893,144.376 363.56,144.043 363.5,143.5C 365.849,141.659 368.515,140.326 371.5,139.5 Z"/></g>
<g><path style="opacity:0.855" fill="#a8b6ac" d="M 409.5,141.5 C 409.672,142.492 409.338,143.158 408.5,143.5C 407.243,142.377 407.576,141.711 409.5,141.5 Z"/></g>
<g><path style="opacity:0.161" fill="#d8e1db" d="M 296.5,142.5 C 298.465,142.948 298.798,143.948 297.5,145.5C 296.614,144.675 296.281,143.675 296.5,142.5 Z"/></g>
<g><path style="opacity:0.196" fill="#91a998" d="M 340.5,142.5 C 340.011,143.995 339.345,145.329 338.5,146.5C 337.024,144.291 337.691,142.958 340.5,142.5 Z"/></g>
<g><path style="opacity:1" fill="#b9c6bd" d="M 307.5,143.5 C 309.129,145.196 308.796,146.196 306.5,146.5C 306.263,145.209 306.596,144.209 307.5,143.5 Z"/></g>
<g><path style="opacity:1" fill="#226154" d="M 181.5,145.5 C 192.271,146.04 195.771,151.373 192,161.5C 187.192,166.131 182.192,166.465 177,162.5C 172.616,155.152 174.116,149.485 181.5,145.5 Z"/></g>
<g><path style="opacity:0.993" fill="#206052" d="M 257.5,145.5 C 268.185,146.019 271.685,151.353 268,161.5C 261.093,167.188 255.427,166.188 251,158.5C 249.456,152.255 251.623,147.921 257.5,145.5 Z"/></g>
<g><path style="opacity:1" fill="#8ca393" d="M 306.5,148.5 C 307.757,149.623 307.424,150.289 305.5,150.5C 305.328,149.508 305.662,148.842 306.5,148.5 Z"/></g>
<g><path style="opacity:0.392" fill="#bcc8bf" d="M 407.5,149.5 C 407.672,150.492 407.338,151.158 406.5,151.5C 404.969,150.075 405.302,149.409 407.5,149.5 Z"/></g>
<g><path style="opacity:0.106" fill="#b5c5ba" d="M 338.5,148.5 C 338.59,151.152 337.924,153.485 336.5,155.5C 335.903,155.265 335.57,154.765 335.5,154C 335.699,151.552 336.699,149.719 338.5,148.5 Z"/></g>
<g><path style="opacity:0.847" fill="#587761" d="M 93.5,151.5 C 98.5154,152.333 102.515,154.666 105.5,158.5C 101.136,156.656 97.1362,154.323 93.5,151.5 Z"/></g>
<g><path style="opacity:0.447" fill="#99ac9e" d="M 305.5,151.5 C 306.653,152.313 306.653,153.313 305.5,154.5C 305.043,155.298 304.376,155.631 303.5,155.5C 303.66,153.847 304.326,152.514 305.5,151.5 Z"/></g>
<g><path style="opacity:0.871" fill="#6a8572" d="M 351.5,150.5 C 351.631,151.376 351.298,152.043 350.5,152.5C 346.237,155.027 341.903,157.36 337.5,159.5C 337.5,158.833 337.5,158.167 337.5,157.5C 342.183,155.137 346.85,152.804 351.5,150.5 Z"/></g>
<g><path style="opacity:0.027" fill="#b2c1b6" d="M 336.5,156.5 C 336.5,157.167 336.833,157.5 337.5,157.5C 337.5,158.167 337.5,158.833 337.5,159.5C 336.175,158.047 335.342,158.381 335,160.5C 334.156,158.537 334.656,157.204 336.5,156.5 Z"/></g>
<g><path style="opacity:0.525" fill="#859e8c" d="M 406.5,153.5 C 405.027,156.921 402.361,158.921 398.5,159.5C 398.414,158.504 398.748,157.671 399.5,157C 401.97,156.011 404.303,154.845 406.5,153.5 Z"/></g>
<g><path style="opacity:1" fill="#9dada1" d="M 302.5,157.5 C 302.843,159.483 302.176,160.817 300.5,161.5C 300.66,159.847 301.326,158.514 302.5,157.5 Z"/></g>
<g><path style="opacity:0.769" fill="#627f69" d="M 397.5,159.5 C 394.001,161.75 390.335,163.75 386.5,165.5C 388.998,162.228 392.331,159.894 396.5,158.5C 397.107,158.624 397.44,158.957 397.5,159.5 Z"/></g>
<g><path style="opacity:1" fill="#728c78" d="M 300.5,161.5 C 300.975,164.313 299.975,166.313 297.5,167.5C 297.5,166.833 297.5,166.167 297.5,165.5C 298.026,163.77 299.026,162.436 300.5,161.5 Z"/></g>
<g><path style="opacity:0.173" fill="#d4dcd6" d="M 297.5,165.5 C 297.5,166.167 297.5,166.833 297.5,167.5C 296.833,167.833 296.167,168.167 295.5,168.5C 295.427,166.973 296.094,165.973 297.5,165.5 Z"/></g>
<g><path style="opacity:0.395" fill="#94ac9c" d="M 382.5,167.5 C 381.965,169.446 380.632,170.446 378.5,170.5C 379.035,168.554 380.368,167.554 382.5,167.5 Z"/></g>
<g><path style="opacity:0.647" fill="#92a698" d="M 370.5,174.5 C 368.151,176.341 365.485,177.674 362.5,178.5C 364.168,176.142 366.501,174.476 369.5,173.5C 370.107,173.624 370.44,173.957 370.5,174.5 Z"/></g>
<g><path style="opacity:0.996" fill="#1b5d4f" d="M 192.5,255.5 C 192.027,254.094 191.027,253.427 189.5,253.5C 170.874,231.38 162.54,205.713 164.5,176.5C 170.545,178.69 176.212,181.69 181.5,185.5C 180.333,218.836 193.666,244.503 221.5,262.5C 251.232,244.713 265.565,218.38 264.5,183.5C 268.737,180.252 273.404,177.919 278.5,176.5C 281.596,216.801 266.596,248.301 233.5,271C 229.584,273.127 225.584,274.96 221.5,276.5C 210.394,271.38 200.727,264.38 192.5,255.5 Z M 205.5,190.5 C 204.5,191.167 203.5,191.833 202.5,192.5C 202.795,190.577 203.628,188.91 205,187.5C 205.483,188.448 205.649,189.448 205.5,190.5 Z M 239.5,191.5 C 238.833,191.167 238.167,190.833 237.5,190.5C 238.268,186.861 238.934,187.194 239.5,191.5 Z M 205.5,190.5 C 207.167,191.5 208.5,192.833 209.5,194.5C 207.167,194.167 205.833,192.833 205.5,190.5 Z M 237.5,190.5 C 237.167,192.833 235.833,194.167 233.5,194.5C 234.5,192.833 235.833,191.5 237.5,190.5 Z M 209.5,211.5 C 207.983,211.489 206.816,210.823 206,209.5C 205.184,210.823 204.017,211.489 202.5,211.5C 204.27,209.887 205.436,207.887 206,205.5C 206.926,207.692 208.093,209.692 209.5,211.5 Z M 241.5,210.5 C 240.167,210.167 238.833,209.833 237.5,209.5C 237.709,208.078 238.209,206.745 239,205.5C 239.366,207.452 240.199,209.118 241.5,210.5 Z M 237.5,209.5 C 237.5,210.833 236.833,211.5 235.5,211.5C 235.833,210.5 236.5,209.833 237.5,209.5 Z M 223.5,209.5 C 224.833,209.5 225.5,210.167 225.5,211.5C 224.5,211.167 223.833,210.5 223.5,209.5 Z M 209.5,211.5 C 212.096,212.265 214.763,212.599 217.5,212.5C 216.551,213.152 215.385,213.486 214,213.5C 211.992,213.693 210.492,213.026 209.5,211.5 Z M 235.5,211.5 C 234.508,213.026 233.008,213.693 231,213.5C 229.615,213.486 228.449,213.152 227.5,212.5C 230.237,212.599 232.904,212.265 235.5,211.5 Z M 242.5,211.5 C 245.5,212.833 248.5,212.833 251.5,211.5C 250.508,213.026 249.008,213.693 247,213.5C 244.992,213.693 243.492,213.026 242.5,211.5 Z M 208.5,222.5 C 211.1,224.244 210.934,225.577 208,226.5C 207.805,225.181 207.972,223.847 208.5,222.5 Z M 224.5,225.5 C 222.775,225.157 222.275,224.157 223,222.5C 223.513,223.527 224.013,224.527 224.5,225.5 Z M 238.5,225.5 C 235.093,225.875 234.593,224.875 237,222.5C 237.513,223.527 238.013,224.527 238.5,225.5 Z M 217.5,247.5 C 216.833,247.833 216.167,248.167 215.5,248.5C 215.711,246.576 216.377,246.243 217.5,247.5 Z"/></g>
<g><path style="opacity:0.384" fill="#9eafa3" d="M 283.5,177.5 C 283.5,178.833 282.833,179.5 281.5,179.5C 281.5,178.167 282.167,177.5 283.5,177.5 Z"/></g>
<g><path style="opacity:0.983" fill="#266356" d="M 209.5,194.5 C 208.5,192.833 207.167,191.5 205.5,190.5C 205.649,189.448 205.483,188.448 205,187.5C 203.628,188.91 202.795,190.577 202.5,192.5C 201.833,192.5 201.5,192.833 201.5,193.5C 200.508,193.328 199.842,193.662 199.5,194.5C 197.5,194.5 195.5,194.5 193.5,194.5C 191.445,193.441 190.111,191.775 189.5,189.5C 191.156,187.94 193.156,186.94 195.5,186.5C 197.527,186.662 199.527,186.495 201.5,186C 205.631,184.664 209.631,183.164 213.5,181.5C 214.137,185.578 215.47,189.411 217.5,193C 214.986,194.252 212.32,194.752 209.5,194.5 Z M 205.5,190.5 C 204.5,191.167 203.5,191.833 202.5,192.5C 202.795,190.577 203.628,188.91 205,187.5C 205.483,188.448 205.649,189.448 205.5,190.5 Z M 205.5,190.5 C 207.167,191.5 208.5,192.833 209.5,194.5C 207.167,194.167 205.833,192.833 205.5,190.5 Z"/></g>
<g><path style="opacity:0.714" fill="#7a917f" d="M 354.5,182.5 C 352.151,184.341 349.485,185.674 346.5,186.5C 348.513,184.635 350.846,182.968 353.5,181.5C 354.107,181.624 354.44,181.957 354.5,182.5 Z"/></g>
<g><path style="opacity:0.027" fill="#afc6c2" d="M 195.5,186.5 C 193.156,186.94 191.156,187.94 189.5,189.5C 188.596,188.791 188.263,187.791 188.5,186.5C 190.833,186.5 193.167,186.5 195.5,186.5 Z"/></g>
<g><path style="opacity:0.999" fill="#2e685b" d="M 251.5,193.5 C 250.508,193.328 249.842,193.662 249.5,194.5C 247.5,194.5 245.5,194.5 243.5,194.5C 243.158,193.662 242.492,193.328 241.5,193.5C 241.5,192.833 241.167,192.5 240.5,192.5C 240.5,191.833 240.167,191.5 239.5,191.5C 238.934,187.194 238.268,186.861 237.5,190.5C 235.833,191.5 234.5,192.833 233.5,194.5C 231.076,194.808 228.743,194.474 226.5,193.5C 228.414,189.677 229.747,185.677 230.5,181.5C 234.369,183.164 238.369,184.664 242.5,186C 246.486,186.499 250.486,186.666 254.5,186.5C 253.989,189.022 252.989,191.355 251.5,193.5 Z M 239.5,191.5 C 238.833,191.167 238.167,190.833 237.5,190.5C 238.268,186.861 238.934,187.194 239.5,191.5 Z M 237.5,190.5 C 237.167,192.833 235.833,194.167 233.5,194.5C 234.5,192.833 235.833,191.5 237.5,190.5 Z"/></g>
<g><path style="opacity:0.047" fill="#c5cec7" d="M 339.5,191.5 C 338.486,192.674 337.153,193.34 335.5,193.5C 335.787,191.879 336.787,190.879 338.5,190.5C 339.107,190.624 339.44,190.957 339.5,191.5 Z"/></g>
<g><path style="opacity:0.998" fill="#1f5f52" d="M 205.5,190.5 C 205.833,192.833 207.167,194.167 209.5,194.5C 212.03,195.776 214.697,195.776 217.5,194.5C 219.954,199.253 221.287,204.253 221.5,209.5C 220.833,209.5 220.5,209.833 220.5,210.5C 219.833,210.5 219.5,210.833 219.5,211.5C 218.508,211.328 217.842,211.662 217.5,212.5C 214.763,212.599 212.096,212.265 209.5,211.5C 208.093,209.692 206.926,207.692 206,205.5C 205.436,207.887 204.27,209.887 202.5,211.5C 197.882,213.345 194.048,212.345 191,208.5C 189.456,203.243 188.789,197.91 189,192.5C 190.11,194.037 191.61,194.703 193.5,194.5C 195.5,195.833 197.5,195.833 199.5,194.5C 200.492,194.672 201.158,194.338 201.5,193.5C 202.167,193.5 202.5,193.167 202.5,192.5C 203.5,191.833 204.5,191.167 205.5,190.5 Z M 209.5,211.5 C 207.983,211.489 206.816,210.823 206,209.5C 205.184,210.823 204.017,211.489 202.5,211.5C 204.27,209.887 205.436,207.887 206,205.5C 206.926,207.692 208.093,209.692 209.5,211.5 Z"/></g>
<g><path style="opacity:0.995" fill="#1f5f51" d="M 237.5,190.5 C 238.167,190.833 238.833,191.167 239.5,191.5C 240.167,191.5 240.5,191.833 240.5,192.5C 241.167,192.5 241.5,192.833 241.5,193.5C 241.842,194.338 242.508,194.672 243.5,194.5C 245.5,195.833 247.5,195.833 249.5,194.5C 250.492,194.672 251.158,194.338 251.5,193.5C 253.411,193.426 254.578,192.426 255,190.5C 255.712,196.028 255.546,201.528 254.5,207C 253.992,208.893 252.992,210.393 251.5,211.5C 248.5,212.833 245.5,212.833 242.5,211.5C 242.5,210.833 242.167,210.5 241.5,210.5C 240.199,209.118 239.366,207.452 239,205.5C 238.209,206.745 237.709,208.078 237.5,209.5C 236.5,209.833 235.833,210.5 235.5,211.5C 232.904,212.265 230.237,212.599 227.5,212.5C 227.158,211.662 226.492,211.328 225.5,211.5C 225.5,210.167 224.833,209.5 223.5,209.5C 223.567,207.599 223.233,205.766 222.5,204C 223.939,201.295 224.939,198.462 225.5,195.5C 228.385,195.806 231.052,195.473 233.5,194.5C 235.833,194.167 237.167,192.833 237.5,190.5 Z M 241.5,210.5 C 240.167,210.167 238.833,209.833 237.5,209.5C 237.709,208.078 238.209,206.745 239,205.5C 239.366,207.452 240.199,209.118 241.5,210.5 Z M 237.5,209.5 C 237.5,210.833 236.833,211.5 235.5,211.5C 235.833,210.5 236.5,209.833 237.5,209.5 Z"/></g>
<g><path style="opacity:0.325" fill="#5d7964" d="M 111.5,192.5 C 114.54,193.68 117.206,195.347 119.5,197.5C 119.565,197.938 119.399,198.272 119,198.5C 115.719,197.301 113.219,195.301 111.5,192.5 Z"/></g>
<g><path style="opacity:0.678" fill="#aab8ae" d="M 325.5,198.5 C 323.819,200.008 321.819,201.008 319.5,201.5C 320.607,199.031 322.607,198.031 325.5,198.5 Z"/></g>
<g><path style="opacity:0.937" fill="#8b9f90" d="M 311.5,205.5 C 309.819,207.008 307.819,208.008 305.5,208.5C 306.784,206.386 308.784,205.386 311.5,205.5 Z"/></g>
<g><path style="opacity:0.999" fill="#206052" d="M 209.5,211.5 C 210.492,213.026 211.992,213.693 214,213.5C 215.385,213.486 216.551,213.152 217.5,212.5C 218.492,212.672 219.158,212.338 219.5,211.5C 220.167,211.5 220.5,211.167 220.5,210.5C 221.167,210.5 221.5,210.167 221.5,209.5C 222.167,209.5 222.833,209.5 223.5,209.5C 223.833,210.5 224.5,211.167 225.5,211.5C 225.842,212.338 226.508,212.672 227.5,212.5C 228.449,213.152 229.615,213.486 231,213.5C 233.008,213.693 234.508,213.026 235.5,211.5C 236.833,211.5 237.5,210.833 237.5,209.5C 238.833,209.833 240.167,210.167 241.5,210.5C 242.167,210.5 242.5,210.833 242.5,211.5C 243.492,213.026 244.992,213.693 247,213.5C 249.008,213.693 250.508,213.026 251.5,211.5C 252.376,211.369 253.043,211.702 253.5,212.5C 251.595,221.698 247.928,230.031 242.5,237.5C 240.05,237.702 237.717,237.369 235.5,236.5C 235.81,238.144 236.81,239.144 238.5,239.5C 239.525,239.897 239.692,240.563 239,241.5C 236.894,244.118 234.394,246.118 231.5,247.5C 231.167,247.5 230.833,247.5 230.5,247.5C 230.167,246.167 229.833,246.167 229.5,247.5C 228.833,247.5 228.5,247.833 228.5,248.5C 227.5,248.5 226.5,248.5 225.5,248.5C 225.167,248.5 224.833,248.5 224.5,248.5C 224.672,247.508 224.338,246.842 223.5,246.5C 222.833,246.5 222.5,246.833 222.5,247.5C 220.716,248.72 219.05,248.72 217.5,247.5C 216.377,246.243 215.711,246.576 215.5,248.5C 214.078,248.291 212.745,247.791 211.5,247C 202.777,237.955 196.444,226.955 192.5,214C 192.833,213.5 193.167,213 193.5,212.5C 194.939,213.063 196.439,213.397 198,213.5C 200.008,213.693 201.508,213.026 202.5,211.5C 204.017,211.489 205.184,210.823 206,209.5C 206.816,210.823 207.983,211.489 209.5,211.5 Z M 237.5,209.5 C 237.5,210.833 236.833,211.5 235.5,211.5C 235.833,210.5 236.5,209.833 237.5,209.5 Z M 223.5,209.5 C 224.833,209.5 225.5,210.167 225.5,211.5C 224.5,211.167 223.833,210.5 223.5,209.5 Z M 209.5,211.5 C 212.096,212.265 214.763,212.599 217.5,212.5C 216.551,213.152 215.385,213.486 214,213.5C 211.992,213.693 210.492,213.026 209.5,211.5 Z M 235.5,211.5 C 234.508,213.026 233.008,213.693 231,213.5C 229.615,213.486 228.449,213.152 227.5,212.5C 230.237,212.599 232.904,212.265 235.5,211.5 Z M 242.5,211.5 C 245.5,212.833 248.5,212.833 251.5,211.5C 250.508,213.026 249.008,213.693 247,213.5C 244.992,213.693 243.492,213.026 242.5,211.5 Z M 208.5,222.5 C 207.972,223.847 207.805,225.181 208,226.5C 210.934,225.577 211.1,224.244 208.5,222.5 Z M 224.5,225.5 C 224.013,224.527 223.513,223.527 223,222.5C 222.275,224.157 222.775,225.157 224.5,225.5 Z M 238.5,225.5 C 238.013,224.527 237.513,223.527 237,222.5C 234.593,224.875 235.093,225.875 238.5,225.5 Z M 217.5,247.5 C 216.833,247.833 216.167,248.167 215.5,248.5C 215.711,246.576 216.377,246.243 217.5,247.5 Z"/></g>
<g><path style="opacity:0.075" fill="#819b89" d="M 142.5,209.5 C 144.368,210.263 146.035,211.263 147.5,212.5C 146.883,212.611 146.383,212.944 146,213.5C 144.373,212.468 143.207,211.134 142.5,209.5 Z"/></g>
<g><path style="opacity:0.239" fill="#a1b4a7" d="M 301.5,210.5 C 301.631,211.376 301.298,212.043 300.5,212.5C 298.045,214.297 295.378,215.63 292.5,216.5C 292.414,215.504 292.748,214.671 293.5,214C 296.071,212.546 298.738,211.38 301.5,210.5 Z"/></g>
<g><path style="opacity:0.357" fill="#7e9685" d="M 287.5,218.5 C 286.486,219.674 285.153,220.34 283.5,220.5C 283.787,218.879 284.787,217.879 286.5,217.5C 287.107,217.624 287.44,217.957 287.5,218.5 Z"/></g>
<g><path style="opacity:0.004" fill="#719a92" d="M 211.5,234.5 C 212.167,235.167 212.833,235.833 213.5,236.5C 211.956,236.703 210.622,237.37 209.5,238.5C 208.605,236.655 209.272,235.322 211.5,234.5 Z"/></g>
<g><path style="opacity:0.004" fill="#b8ccc7" d="M 223.5,233.5 C 224.404,234.209 224.737,235.209 224.5,236.5C 222.856,237.366 221.189,237.866 219.5,238C 221.192,236.693 222.525,235.193 223.5,233.5 Z"/></g>
<g><path style="opacity:0.325" fill="#7f9e97" d="M 235.5,236.5 C 237.717,237.369 240.05,237.702 242.5,237.5C 241.167,238.167 239.833,238.833 238.5,239.5C 236.81,239.144 235.81,238.144 235.5,236.5 Z"/></g>
<g><path style="opacity:0.251" fill="#91ada7" d="M 213.5,236.5 C 214.5,237.167 215.5,237.833 216.5,238.5C 216.5,238.833 216.5,239.167 216.5,239.5C 214.5,239.5 213.5,238.5 213.5,236.5 Z"/></g>
<g><path style="opacity:0.227" fill="#94b2ac" d="M 232.5,236.5 C 232.5,238.5 231.5,239.5 229.5,239.5C 229.5,239.167 229.5,238.833 229.5,238.5C 230.5,237.833 231.5,237.167 232.5,236.5 Z"/></g>
<g><path style="opacity:0.165" fill="#8fada7" d="M 223.5,246.5 C 224.338,246.842 224.672,247.508 224.5,248.5C 224.5,248.833 224.5,249.167 224.5,249.5C 223.883,249.389 223.383,249.056 223,248.5C 220.882,250.363 218.716,251.03 216.5,250.5C 215.662,250.158 215.328,249.492 215.5,248.5C 216.167,248.167 216.833,247.833 217.5,247.5C 219.05,248.72 220.716,248.72 222.5,247.5C 223.167,247.5 223.5,247.167 223.5,246.5 Z"/></g>
<g><path style="opacity:0.993" fill="#2e685b" d="M 224.5,249.5 C 224.833,249.5 225.167,249.5 225.5,249.5C 226.167,250.167 226.833,250.833 227.5,251.5C 225.695,252.237 224.029,253.237 222.5,254.5C 220.187,253.5 218.187,252.166 216.5,250.5C 218.716,251.03 220.882,250.363 223,248.5C 223.383,249.056 223.883,249.389 224.5,249.5 Z"/></g>
<g><path style="opacity:0.082" fill="#7ea29a" d="M 229.5,247.5 C 229.833,247.5 230.167,247.5 230.5,247.5C 230.833,247.5 231.167,247.5 231.5,247.5C 230.5,249.167 229.167,250.5 227.5,251.5C 226.833,250.833 226.167,250.167 225.5,249.5C 225.5,249.167 225.5,248.833 225.5,248.5C 226.5,248.5 227.5,248.5 228.5,248.5C 229.167,248.5 229.5,248.167 229.5,247.5 Z"/></g>
<g><path style="opacity:0.361" fill="#8ca6a0" d="M 189.5,253.5 C 191.027,253.427 192.027,254.094 192.5,255.5C 190.973,255.573 189.973,254.906 189.5,253.5 Z"/></g>
<g><path style="opacity:0.996" fill="#175b4d" d="M 299.5,293.5 C 298.539,295.265 298.205,297.265 298.5,299.5C 292.833,299.5 287.167,299.5 281.5,299.5C 281.768,297.901 281.434,296.568 280.5,295.5C 247.85,293.507 214.85,292.84 181.5,293.5C 181.64,295.124 180.973,296.29 179.5,297C 180.752,305.206 177.752,311.54 170.5,316C 161.818,317.827 155.818,314.66 152.5,306.5C 144.367,306.689 138.867,303.023 136,295.5C 135.333,290.5 135.333,285.5 136,280.5C 138.746,272.707 144.246,269.374 152.5,270.5C 154.019,260.744 159.685,256.244 169.5,257C 174.731,259.232 178.231,263.065 180,268.5C 180.42,272.191 180.92,275.858 181.5,279.5C 222.835,279.333 264.168,279.5 305.5,280C 310.821,284.381 310.821,288.715 305.5,293C 303.527,293.495 301.527,293.662 299.5,293.5 Z M 164.5,272.5 C 168.762,272.587 171.429,274.754 172.5,279C 171.118,281.694 169.785,284.361 168.5,287C 169.954,289.407 171.288,291.907 172.5,294.5C 167.896,303.756 163.563,303.589 159.5,294C 157.559,293.257 155.726,293.424 154,294.5C 147.713,291.508 146.879,287.341 151.5,282C 154.267,281.944 156.933,281.778 159.5,281.5C 160.402,278.026 162.068,275.026 164.5,272.5 Z"/></g>
<g><path style="opacity:1" fill="#296457" d="M 236.5,301.5 C 236.672,300.508 236.338,299.842 235.5,299.5C 235.672,298.508 235.338,297.842 234.5,297.5C 233.5,297.5 232.5,297.5 231.5,297.5C 234.317,296.096 237.317,295.263 240.5,295C 247.264,303.084 253.097,311.584 258,320.5C 255.333,322.5 252.667,324.5 250,326.5C 245.399,318.178 240.899,309.844 236.5,301.5 Z"/></g>
<g><path style="opacity:0.999" fill="#266255" d="M 209.5,299.5 C 204.67,307.827 200.336,316.494 196.5,325.5C 196,325.833 195.5,326.167 195,326.5C 192.61,325.722 190.443,324.555 188.5,323C 186.789,321.867 186.289,320.367 187,318.5C 192.5,311 198,303.5 203.5,296C 206.955,294.889 208.955,296.056 209.5,299.5 Z"/></g>
<g><path style="opacity:0.995" fill="#226153" d="M 231.5,297.5 C 232.5,297.5 233.5,297.5 234.5,297.5C 234.328,298.492 234.662,299.158 235.5,299.5C 235.328,300.492 235.662,301.158 236.5,301.5C 239.224,309.944 242.224,318.278 245.5,326.5C 245.392,327.442 245.059,328.275 244.5,329C 241.129,330.068 237.796,331.235 234.5,332.5C 233.21,330.343 232.376,328.01 232,325.5C 230.637,316.119 229.137,306.786 227.5,297.5C 228.833,297.5 230.167,297.5 231.5,297.5 Z"/></g>
<g><path style="opacity:0.998" fill="#236154" d="M 209.5,299.5 C 211.8,297.798 214.467,297.132 217.5,297.5C 215.824,309.221 213.824,320.888 211.5,332.5C 207.065,331.902 203.065,330.402 199.5,328C 203.332,318.669 206.666,309.169 209.5,299.5 Z"/></g>
<g><path style="opacity:0.98" fill="#206052" d="M 224.5,297.5 C 225.117,297.611 225.617,297.944 226,298.5C 226.742,309.902 227.909,321.235 229.5,332.5C 224.88,333.493 220.214,333.827 215.5,333.5C 217.073,321.86 218.407,310.193 219.5,298.5C 221.415,298.784 223.081,298.451 224.5,297.5 Z"/></g>
<g><path style="opacity:0.588" fill="#70948c" d="M 299.5,293.5 C 299.721,296.279 299.388,298.946 298.5,301.5C 292.833,301.5 287.167,301.5 281.5,301.5C 280.659,299.621 280.325,297.621 280.5,295.5C 281.434,296.568 281.768,297.901 281.5,299.5C 287.167,299.5 292.833,299.5 298.5,299.5C 298.205,297.265 298.539,295.265 299.5,293.5 Z"/></g>
<g><path style="opacity:0.845" fill="#175b4d" d="M 281.5,301.5 C 287.167,301.5 292.833,301.5 298.5,301.5C 299.461,303.265 299.795,305.265 299.5,307.5C 293.167,307.5 286.833,307.5 280.5,307.5C 280.205,305.265 280.539,303.265 281.5,301.5 Z"/></g>
</svg>
